<mxfile host="Electron" modified="2024-08-13T23:01:57.362Z" agent="Mozilla/5.0 (Windows NT 10.0; Win64; x64) AppleWebKit/537.36 (KHTML, like Gecko) draw.io/23.0.2 Chrome/120.0.6099.109 Electron/28.1.0 Safari/537.36" etag="8ZbbypOb4FPFAPOCzFoO" version="23.0.2" type="device">
  <diagram name="Page-1" id="Amrm0kvx0odSU5wdFRfC">
    <mxGraphModel dx="1247" dy="727" grid="1" gridSize="10" guides="1" tooltips="1" connect="1" arrows="1" fold="1" page="1" pageScale="1" pageWidth="850" pageHeight="1100" math="0" shadow="0">
      <root>
        <mxCell id="0" />
        <mxCell id="1" parent="0" />
        <mxCell id="masuSCkF3HdqrZElRDKO-8" value="SpСloud&lt;br&gt;функциональность" style="text;html=1;strokeColor=none;fillColor=none;align=center;verticalAlign=middle;whiteSpace=wrap;rounded=0;" parent="1" vertex="1">
          <mxGeometry x="310" y="90" width="160" height="30" as="geometry" />
        </mxCell>
        <mxCell id="masuSCkF3HdqrZElRDKO-9" value="Паблишь приложения функциональность&amp;nbsp;" style="text;html=1;strokeColor=none;fillColor=none;align=center;verticalAlign=middle;whiteSpace=wrap;rounded=0;" parent="1" vertex="1">
          <mxGeometry x="565" y="150" width="160" height="30" as="geometry" />
        </mxCell>
        <mxCell id="masuSCkF3HdqrZElRDKO-11" value="q1" style="ellipse;whiteSpace=wrap;html=1;" parent="1" vertex="1">
          <mxGeometry x="390" y="320" width="120" height="80" as="geometry" />
        </mxCell>
        <mxCell id="masuSCkF3HdqrZElRDKO-12" value="&amp;nbsp;Юзер посылает rar архив с своим приложением и его таргетом&amp;nbsp;&lt;br&gt;и прикрепляет auth токен в header" style="text;html=1;strokeColor=none;fillColor=none;align=center;verticalAlign=middle;whiteSpace=wrap;rounded=0;" parent="1" vertex="1">
          <mxGeometry x="375" y="390" width="150" height="100" as="geometry" />
        </mxCell>
        <mxCell id="masuSCkF3HdqrZElRDKO-14" value="" style="endArrow=classic;html=1;rounded=0;entryX=0;entryY=0.5;entryDx=0;entryDy=0;" parent="1" edge="1" target="masuSCkF3HdqrZElRDKO-15">
          <mxGeometry width="50" height="50" relative="1" as="geometry">
            <mxPoint x="500" y="360" as="sourcePoint" />
            <mxPoint x="650" y="360" as="targetPoint" />
          </mxGeometry>
        </mxCell>
        <mxCell id="masuSCkF3HdqrZElRDKO-15" value="q2" style="ellipse;whiteSpace=wrap;html=1;" parent="1" vertex="1">
          <mxGeometry x="770" y="320" width="120" height="80" as="geometry" />
        </mxCell>
        <mxCell id="vamjHUPJP5RwR4Vbvad3-3" value="Юзер&amp;nbsp;" style="shape=umlActor;verticalLabelPosition=bottom;verticalAlign=top;html=1;outlineConnect=0;" vertex="1" parent="1">
          <mxGeometry x="80" y="180" width="30" height="60" as="geometry" />
        </mxCell>
        <mxCell id="vamjHUPJP5RwR4Vbvad3-4" value="Лимит" style="swimlane;fontStyle=0;childLayout=stackLayout;horizontal=1;startSize=30;horizontalStack=0;resizeParent=1;resizeParentMax=0;resizeLast=0;collapsible=1;marginBottom=0;whiteSpace=wrap;html=1;" vertex="1" parent="1">
          <mxGeometry x="140" y="150" width="190" height="150" as="geometry" />
        </mxCell>
        <mxCell id="vamjHUPJP5RwR4Vbvad3-5" value="Лимит 6 приложений" style="text;strokeColor=none;fillColor=none;align=left;verticalAlign=middle;spacingLeft=4;spacingRight=4;overflow=hidden;points=[[0,0.5],[1,0.5]];portConstraint=eastwest;rotatable=0;whiteSpace=wrap;html=1;" vertex="1" parent="vamjHUPJP5RwR4Vbvad3-4">
          <mxGeometry y="30" width="190" height="30" as="geometry" />
        </mxCell>
        <mxCell id="vamjHUPJP5RwR4Vbvad3-6" value="Обязательно роль Team" style="text;strokeColor=none;fillColor=none;align=left;verticalAlign=middle;spacingLeft=4;spacingRight=4;overflow=hidden;points=[[0,0.5],[1,0.5]];portConstraint=eastwest;rotatable=0;whiteSpace=wrap;html=1;" vertex="1" parent="vamjHUPJP5RwR4Vbvad3-4">
          <mxGeometry y="60" width="190" height="30" as="geometry" />
        </mxCell>
        <mxCell id="vamjHUPJP5RwR4Vbvad3-7" value="Регистрация через дискорд" style="text;strokeColor=none;fillColor=none;align=left;verticalAlign=middle;spacingLeft=4;spacingRight=4;overflow=hidden;points=[[0,0.5],[1,0.5]];portConstraint=eastwest;rotatable=0;whiteSpace=wrap;html=1;" vertex="1" parent="vamjHUPJP5RwR4Vbvad3-4">
          <mxGeometry y="90" width="190" height="30" as="geometry" />
        </mxCell>
        <mxCell id="vamjHUPJP5RwR4Vbvad3-16" value="Пользователь может быть забанен" style="text;strokeColor=none;fillColor=none;align=left;verticalAlign=middle;spacingLeft=4;spacingRight=4;overflow=hidden;points=[[0,0.5],[1,0.5]];portConstraint=eastwest;rotatable=0;whiteSpace=wrap;html=1;" vertex="1" parent="vamjHUPJP5RwR4Vbvad3-4">
          <mxGeometry y="120" width="190" height="30" as="geometry" />
        </mxCell>
        <mxCell id="vamjHUPJP5RwR4Vbvad3-8" value="Лимиты" style="swimlane;fontStyle=0;childLayout=stackLayout;horizontal=1;startSize=30;horizontalStack=0;resizeParent=1;resizeParentMax=0;resizeLast=0;collapsible=1;marginBottom=0;whiteSpace=wrap;html=1;" vertex="1" parent="1">
          <mxGeometry x="550" y="190" width="190" height="120" as="geometry" />
        </mxCell>
        <mxCell id="vamjHUPJP5RwR4Vbvad3-9" value="Dotnet 6 7 8&amp;nbsp; (Console + ASP)" style="text;strokeColor=none;fillColor=none;align=left;verticalAlign=middle;spacingLeft=4;spacingRight=4;overflow=hidden;points=[[0,0.5],[1,0.5]];portConstraint=eastwest;rotatable=0;whiteSpace=wrap;html=1;" vertex="1" parent="vamjHUPJP5RwR4Vbvad3-8">
          <mxGeometry y="30" width="190" height="30" as="geometry" />
        </mxCell>
        <mxCell id="vamjHUPJP5RwR4Vbvad3-10" value="Запустить свою монго дб на 100 мб (возможно добавлю)" style="text;strokeColor=none;fillColor=none;align=left;verticalAlign=middle;spacingLeft=4;spacingRight=4;overflow=hidden;points=[[0,0.5],[1,0.5]];portConstraint=eastwest;rotatable=0;whiteSpace=wrap;html=1;" vertex="1" parent="vamjHUPJP5RwR4Vbvad3-8">
          <mxGeometry y="60" width="190" height="30" as="geometry" />
        </mxCell>
        <mxCell id="vamjHUPJP5RwR4Vbvad3-11" value="Nuxt js (возможно добавлю)" style="text;strokeColor=none;fillColor=none;align=left;verticalAlign=middle;spacingLeft=4;spacingRight=4;overflow=hidden;points=[[0,0.5],[1,0.5]];portConstraint=eastwest;rotatable=0;whiteSpace=wrap;html=1;" vertex="1" parent="vamjHUPJP5RwR4Vbvad3-8">
          <mxGeometry y="90" width="190" height="30" as="geometry" />
        </mxCell>
        <mxCell id="vamjHUPJP5RwR4Vbvad3-12" value="&lt;div style=&quot;color: rgb(248, 248, 242); background-color: rgb(33, 33, 33); font-family: IBMPlexMono, &amp;quot;Courier New&amp;quot;, monospace, Consolas, &amp;quot;Courier New&amp;quot;, monospace; line-height: 18px;&quot;&gt;&lt;div&gt;{&lt;/div&gt;&lt;div&gt;&amp;nbsp; &lt;span style=&quot;color: #9cdcfe;&quot;&gt;&quot;target&quot;&lt;/span&gt;&lt;span style=&quot;color: #dcdcdc;&quot;&gt;:&lt;/span&gt; &lt;span style=&quot;color: #ce9178;&quot;&gt;&quot;dotnet-6-console&quot;,&lt;/span&gt;&lt;/div&gt;&lt;div&gt;&quot;appName&quot;&lt;span style=&quot;color: rgb(220, 220, 220);&quot;&gt;:&lt;/span&gt;&amp;nbsp;&lt;span style=&quot;color: rgb(206, 145, 120);&quot;&gt;&quot;TestApp&quot;&lt;/span&gt;&lt;span style=&quot;color: #ce9178;&quot;&gt;&lt;br&gt;&lt;/span&gt;&lt;/div&gt;&lt;div&gt;&lt;span style=&quot;color: #dcdcdc;&quot;&gt;}&lt;/span&gt;&lt;/div&gt;&lt;/div&gt;" style="shape=note;whiteSpace=wrap;html=1;backgroundOutline=1;darkOpacity=0.05;" vertex="1" parent="1">
          <mxGeometry x="328" y="510" width="222" height="140" as="geometry" />
        </mxCell>
        <mxCell id="vamjHUPJP5RwR4Vbvad3-14" value="&amp;nbsp;Юзер получает статус загрузки своего приложения и айпи (если приложение должно работать с интернетом)" style="text;html=1;strokeColor=none;fillColor=none;align=center;verticalAlign=middle;whiteSpace=wrap;rounded=0;" vertex="1" parent="1">
          <mxGeometry x="755" y="400" width="150" height="100" as="geometry" />
        </mxCell>
        <mxCell id="vamjHUPJP5RwR4Vbvad3-15" value="&lt;div style=&quot;background-color: rgb(33, 33, 33); line-height: 18px;&quot;&gt;&lt;div style=&quot;color: rgb(248, 248, 242); font-family: IBMPlexMono, &amp;quot;Courier New&amp;quot;, monospace, Consolas, &amp;quot;Courier New&amp;quot;, monospace;&quot;&gt;{&lt;/div&gt;&lt;div style=&quot;color: rgb(248, 248, 242); font-family: IBMPlexMono, &amp;quot;Courier New&amp;quot;, monospace, Consolas, &amp;quot;Courier New&amp;quot;, monospace;&quot;&gt;&quot;status&quot;&lt;span style=&quot;color: rgb(220, 220, 220);&quot;&gt;:&lt;/span&gt;&amp;nbsp;&lt;span style=&quot;color: rgb(206, 145, 120);&quot;&gt;&quot;success&quot;,&lt;/span&gt;&lt;br&gt;&lt;/div&gt;&lt;div style=&quot;&quot;&gt;&lt;font face=&quot;IBMPlexMono, Courier New, monospace, Consolas, Courier New, monospace&quot; color=&quot;#f8f8f2&quot;&gt;&amp;nbsp; &lt;/font&gt;&lt;span style=&quot;color: rgb(156, 220, 254); font-family: IBMPlexMono, &amp;quot;Courier New&amp;quot;, monospace, Consolas, &amp;quot;Courier New&amp;quot;, monospace;&quot;&gt;&quot;url&quot;&lt;/span&gt;&lt;span style=&quot;color: rgb(220, 220, 220); font-family: IBMPlexMono, &amp;quot;Courier New&amp;quot;, monospace, Consolas, &amp;quot;Courier New&amp;quot;, monospace;&quot;&gt;:&lt;/span&gt; &lt;font face=&quot;IBMPlexMono, Courier New, monospace, Consolas, Courier New, monospace&quot; color=&quot;#ce9178&quot;&gt;&quot;https://test.almavid.ru&quot;&lt;/font&gt;&lt;/div&gt;&lt;div style=&quot;color: rgb(248, 248, 242); font-family: IBMPlexMono, &amp;quot;Courier New&amp;quot;, monospace, Consolas, &amp;quot;Courier New&amp;quot;, monospace;&quot;&gt;}&lt;/div&gt;&lt;/div&gt;" style="shape=note;whiteSpace=wrap;html=1;backgroundOutline=1;darkOpacity=0.05;" vertex="1" parent="1">
          <mxGeometry x="725" y="490" width="255" height="150" as="geometry" />
        </mxCell>
        <mxCell id="vamjHUPJP5RwR4Vbvad3-17" value="SpСloud UI" style="text;html=1;strokeColor=none;fillColor=none;align=center;verticalAlign=middle;whiteSpace=wrap;rounded=0;" vertex="1" parent="1">
          <mxGeometry x="355" y="700" width="160" height="30" as="geometry" />
        </mxCell>
        <mxCell id="vamjHUPJP5RwR4Vbvad3-18" value="" style="html=1;whiteSpace=wrap;strokeColor=none;fillColor=#0079D6;labelPosition=center;verticalLabelPosition=middle;verticalAlign=top;align=center;fontSize=12;outlineConnect=0;spacingTop=-6;fontColor=#FFFFFF;sketch=0;shape=mxgraph.sitemap.page;" vertex="1" parent="1">
          <mxGeometry x="120" y="750" width="630" height="950" as="geometry" />
        </mxCell>
        <mxCell id="vamjHUPJP5RwR4Vbvad3-21" value="Зарегистрироваться" style="rounded=1;whiteSpace=wrap;html=1;" vertex="1" parent="1">
          <mxGeometry x="610" y="760" width="130" height="30" as="geometry" />
        </mxCell>
        <mxCell id="vamjHUPJP5RwR4Vbvad3-22" value="Ник пользователя" style="text;html=1;strokeColor=none;fillColor=none;align=center;verticalAlign=middle;whiteSpace=wrap;rounded=0;" vertex="1" parent="1">
          <mxGeometry x="645" y="800" width="60" height="30" as="geometry" />
        </mxCell>
        <mxCell id="vamjHUPJP5RwR4Vbvad3-23" value="&lt;font style=&quot;font-size: 14px;&quot;&gt;Нагрузка сервера в данный момент CPU/RAM/Memory&lt;/font&gt;" style="text;html=1;strokeColor=none;fillColor=none;align=center;verticalAlign=middle;whiteSpace=wrap;rounded=0;" vertex="1" parent="1">
          <mxGeometry x="368.75" y="1190" width="145" height="50" as="geometry" />
        </mxCell>
        <mxCell id="vamjHUPJP5RwR4Vbvad3-24" value="" style="rounded=0;whiteSpace=wrap;html=1;" vertex="1" parent="1">
          <mxGeometry x="161.25" y="1250" width="560" height="200" as="geometry" />
        </mxCell>
        <mxCell id="vamjHUPJP5RwR4Vbvad3-26" value="" style="line;strokeWidth=1;rotatable=0;dashed=0;labelPosition=right;align=left;verticalAlign=middle;spacingTop=0;spacingLeft=6;points=[];portConstraint=eastwest;" vertex="1" parent="1">
          <mxGeometry x="163.75" y="1290" width="555" height="10" as="geometry" />
        </mxCell>
        <mxCell id="vamjHUPJP5RwR4Vbvad3-28" value="" style="html=1;points=[[0,0,0,0,5],[0,1,0,0,-5],[1,0,0,0,5],[1,1,0,0,-5]];perimeter=orthogonalPerimeter;outlineConnect=0;targetShapes=umlLifeline;portConstraint=eastwest;newEdgeStyle={&quot;curved&quot;:0,&quot;rounded&quot;:0};" vertex="1" parent="1">
          <mxGeometry x="220" y="1250" width="10" height="200" as="geometry" />
        </mxCell>
        <mxCell id="vamjHUPJP5RwR4Vbvad3-29" value="Hepatica" style="text;html=1;strokeColor=none;fillColor=none;align=center;verticalAlign=middle;whiteSpace=wrap;rounded=0;" vertex="1" parent="1">
          <mxGeometry x="163.75" y="1260" width="60" height="30" as="geometry" />
        </mxCell>
        <mxCell id="vamjHUPJP5RwR4Vbvad3-30" value="" style="html=1;points=[[0,0,0,0,5],[0,1,0,0,-5],[1,0,0,0,5],[1,1,0,0,-5]];perimeter=orthogonalPerimeter;outlineConnect=0;targetShapes=umlLifeline;portConstraint=eastwest;newEdgeStyle={&quot;curved&quot;:0,&quot;rounded&quot;:0};" vertex="1" parent="1">
          <mxGeometry x="300" y="1250" width="10" height="200" as="geometry" />
        </mxCell>
        <mxCell id="vamjHUPJP5RwR4Vbvad3-31" value="" style="html=1;points=[[0,0,0,0,5],[0,1,0,0,-5],[1,0,0,0,5],[1,1,0,0,-5]];perimeter=orthogonalPerimeter;outlineConnect=0;targetShapes=umlLifeline;portConstraint=eastwest;newEdgeStyle={&quot;curved&quot;:0,&quot;rounded&quot;:0};" vertex="1" parent="1">
          <mxGeometry x="375" y="1250" width="10" height="200" as="geometry" />
        </mxCell>
        <mxCell id="vamjHUPJP5RwR4Vbvad3-32" value="" style="html=1;points=[[0,0,0,0,5],[0,1,0,0,-5],[1,0,0,0,5],[1,1,0,0,-5]];perimeter=orthogonalPerimeter;outlineConnect=0;targetShapes=umlLifeline;portConstraint=eastwest;newEdgeStyle={&quot;curved&quot;:0,&quot;rounded&quot;:0};" vertex="1" parent="1">
          <mxGeometry x="445" y="1250" width="10" height="200" as="geometry" />
        </mxCell>
        <mxCell id="vamjHUPJP5RwR4Vbvad3-33" value="" style="html=1;points=[[0,0,0,0,5],[0,1,0,0,-5],[1,0,0,0,5],[1,1,0,0,-5]];perimeter=orthogonalPerimeter;outlineConnect=0;targetShapes=umlLifeline;portConstraint=eastwest;newEdgeStyle={&quot;curved&quot;:0,&quot;rounded&quot;:0};" vertex="1" parent="1">
          <mxGeometry x="510" y="1250" width="10" height="200" as="geometry" />
        </mxCell>
        <mxCell id="vamjHUPJP5RwR4Vbvad3-34" value="" style="html=1;points=[[0,0,0,0,5],[0,1,0,0,-5],[1,0,0,0,5],[1,1,0,0,-5]];perimeter=orthogonalPerimeter;outlineConnect=0;targetShapes=umlLifeline;portConstraint=eastwest;newEdgeStyle={&quot;curved&quot;:0,&quot;rounded&quot;:0};" vertex="1" parent="1">
          <mxGeometry x="580" y="1250" width="10" height="200" as="geometry" />
        </mxCell>
        <mxCell id="vamjHUPJP5RwR4Vbvad3-35" value="AppUrl" style="text;html=1;strokeColor=none;fillColor=none;align=center;verticalAlign=middle;whiteSpace=wrap;rounded=0;" vertex="1" parent="1">
          <mxGeometry x="230" y="1260" width="60" height="30" as="geometry" />
        </mxCell>
        <mxCell id="vamjHUPJP5RwR4Vbvad3-37" value="CpuUsage" style="text;html=1;strokeColor=none;fillColor=none;align=center;verticalAlign=middle;whiteSpace=wrap;rounded=0;" vertex="1" parent="1">
          <mxGeometry x="308.75" y="1260" width="60" height="30" as="geometry" />
        </mxCell>
        <mxCell id="vamjHUPJP5RwR4Vbvad3-38" value="MemoryUsage" style="text;html=1;strokeColor=none;fillColor=none;align=center;verticalAlign=middle;whiteSpace=wrap;rounded=0;" vertex="1" parent="1">
          <mxGeometry x="385" y="1260" width="60" height="30" as="geometry" />
        </mxCell>
        <mxCell id="vamjHUPJP5RwR4Vbvad3-39" value="Status" style="text;html=1;strokeColor=none;fillColor=none;align=center;verticalAlign=middle;whiteSpace=wrap;rounded=0;" vertex="1" parent="1">
          <mxGeometry x="453.75" y="1260" width="60" height="30" as="geometry" />
        </mxCell>
        <mxCell id="vamjHUPJP5RwR4Vbvad3-40" value="&lt;font style=&quot;font-size: 14px;&quot;&gt;Окно для загрузки архива приложения&lt;/font&gt;" style="text;html=1;strokeColor=none;fillColor=none;align=center;verticalAlign=middle;whiteSpace=wrap;rounded=0;" vertex="1" parent="1">
          <mxGeometry x="341.25" y="980" width="200" height="30" as="geometry" />
        </mxCell>
        <mxCell id="vamjHUPJP5RwR4Vbvad3-41" value="&lt;font style=&quot;font-size: 14px;&quot;&gt;Ссылка на видео гайд&lt;/font&gt;" style="text;html=1;strokeColor=none;fillColor=none;align=center;verticalAlign=middle;whiteSpace=wrap;rounded=0;" vertex="1" parent="1">
          <mxGeometry x="335" y="1470" width="200" height="30" as="geometry" />
        </mxCell>
        <mxCell id="vamjHUPJP5RwR4Vbvad3-42" value="Как пользоваться SpCloud:https://www.youtube.com/watch?v=rUxyKA_-grg" style="text;html=1;strokeColor=none;fillColor=none;align=center;verticalAlign=middle;whiteSpace=wrap;rounded=0;" vertex="1" parent="1">
          <mxGeometry x="161.25" y="1510" width="416.25" height="30" as="geometry" />
        </mxCell>
        <mxCell id="vamjHUPJP5RwR4Vbvad3-43" value="" style="verticalLabelPosition=bottom;aspect=fixed;html=1;shape=mxgraph.salesforce.data;" vertex="1" parent="1">
          <mxGeometry x="1100" y="730" width="48.6" height="60" as="geometry" />
        </mxCell>
        <mxCell id="vamjHUPJP5RwR4Vbvad3-44" value="&lt;span style=&quot;color: rgb(240, 240, 240); font-family: Helvetica; font-size: 12px; font-style: normal; font-variant-ligatures: normal; font-variant-caps: normal; font-weight: 400; letter-spacing: normal; orphans: 2; text-align: center; text-indent: 0px; text-transform: none; widows: 2; word-spacing: 0px; -webkit-text-stroke-width: 0px; background-color: rgb(27, 29, 30); text-decoration-thickness: initial; text-decoration-style: initial; text-decoration-color: initial; float: none; display: inline !important;&quot;&gt;SpСloud db&lt;/span&gt;" style="text;whiteSpace=wrap;html=1;" vertex="1" parent="1">
          <mxGeometry x="1090" y="695" width="90" height="40" as="geometry" />
        </mxCell>
        <mxCell id="vamjHUPJP5RwR4Vbvad3-45" value="User" style="swimlane;fontStyle=0;childLayout=stackLayout;horizontal=1;startSize=30;horizontalStack=0;resizeParent=1;resizeParentMax=0;resizeLast=0;collapsible=1;marginBottom=0;whiteSpace=wrap;html=1;" vertex="1" parent="1">
          <mxGeometry x="970" y="800" width="140" height="150" as="geometry" />
        </mxCell>
        <mxCell id="vamjHUPJP5RwR4Vbvad3-46" value="Id&lt;br&gt;" style="text;strokeColor=none;fillColor=none;align=left;verticalAlign=middle;spacingLeft=4;spacingRight=4;overflow=hidden;points=[[0,0.5],[1,0.5]];portConstraint=eastwest;rotatable=0;whiteSpace=wrap;html=1;" vertex="1" parent="vamjHUPJP5RwR4Vbvad3-45">
          <mxGeometry y="30" width="140" height="30" as="geometry" />
        </mxCell>
        <mxCell id="vamjHUPJP5RwR4Vbvad3-49" value="Name" style="text;strokeColor=none;fillColor=none;align=left;verticalAlign=middle;spacingLeft=4;spacingRight=4;overflow=hidden;points=[[0,0.5],[1,0.5]];portConstraint=eastwest;rotatable=0;whiteSpace=wrap;html=1;" vertex="1" parent="vamjHUPJP5RwR4Vbvad3-45">
          <mxGeometry y="60" width="140" height="30" as="geometry" />
        </mxCell>
        <mxCell id="vamjHUPJP5RwR4Vbvad3-47" value="AuthToken" style="text;strokeColor=none;fillColor=none;align=left;verticalAlign=middle;spacingLeft=4;spacingRight=4;overflow=hidden;points=[[0,0.5],[1,0.5]];portConstraint=eastwest;rotatable=0;whiteSpace=wrap;html=1;" vertex="1" parent="vamjHUPJP5RwR4Vbvad3-45">
          <mxGeometry y="90" width="140" height="30" as="geometry" />
        </mxCell>
        <mxCell id="vamjHUPJP5RwR4Vbvad3-50" value="IsBanned" style="text;strokeColor=none;fillColor=none;align=left;verticalAlign=middle;spacingLeft=4;spacingRight=4;overflow=hidden;points=[[0,0.5],[1,0.5]];portConstraint=eastwest;rotatable=0;whiteSpace=wrap;html=1;" vertex="1" parent="vamjHUPJP5RwR4Vbvad3-45">
          <mxGeometry y="120" width="140" height="30" as="geometry" />
        </mxCell>
        <mxCell id="vamjHUPJP5RwR4Vbvad3-51" value="" style="whiteSpace=wrap;html=1;aspect=fixed;" vertex="1" parent="1">
          <mxGeometry x="359" y="1020" width="160" height="160" as="geometry" />
        </mxCell>
        <mxCell id="vamjHUPJP5RwR4Vbvad3-52" value="&lt;font style=&quot;font-size: 41px;&quot;&gt;SpСloud&lt;/font&gt;" style="text;html=1;strokeColor=none;fillColor=none;align=center;verticalAlign=middle;whiteSpace=wrap;rounded=0;" vertex="1" parent="1">
          <mxGeometry x="409" y="830" width="60" height="30" as="geometry" />
        </mxCell>
        <mxCell id="vamjHUPJP5RwR4Vbvad3-53" value="App" style="swimlane;fontStyle=0;childLayout=stackLayout;horizontal=1;startSize=30;horizontalStack=0;resizeParent=1;resizeParentMax=0;resizeLast=0;collapsible=1;marginBottom=0;whiteSpace=wrap;html=1;" vertex="1" parent="1">
          <mxGeometry x="1170" y="830" width="140" height="90" as="geometry" />
        </mxCell>
        <mxCell id="vamjHUPJP5RwR4Vbvad3-55" value="Name" style="text;strokeColor=none;fillColor=none;align=left;verticalAlign=middle;spacingLeft=4;spacingRight=4;overflow=hidden;points=[[0,0.5],[1,0.5]];portConstraint=eastwest;rotatable=0;whiteSpace=wrap;html=1;" vertex="1" parent="vamjHUPJP5RwR4Vbvad3-53">
          <mxGeometry y="30" width="140" height="30" as="geometry" />
        </mxCell>
        <mxCell id="vamjHUPJP5RwR4Vbvad3-56" value="Url" style="text;strokeColor=none;fillColor=none;align=left;verticalAlign=middle;spacingLeft=4;spacingRight=4;overflow=hidden;points=[[0,0.5],[1,0.5]];portConstraint=eastwest;rotatable=0;whiteSpace=wrap;html=1;" vertex="1" parent="vamjHUPJP5RwR4Vbvad3-53">
          <mxGeometry y="60" width="140" height="30" as="geometry" />
        </mxCell>
        <mxCell id="vamjHUPJP5RwR4Vbvad3-58" value="" style="edgeStyle=orthogonalEdgeStyle;rounded=0;orthogonalLoop=1;jettySize=auto;html=1;entryX=0;entryY=0.5;entryDx=0;entryDy=0;" edge="1" parent="1" source="vamjHUPJP5RwR4Vbvad3-49" target="vamjHUPJP5RwR4Vbvad3-55">
          <mxGeometry relative="1" as="geometry" />
        </mxCell>
      </root>
    </mxGraphModel>
  </diagram>
</mxfile>
